<?xml version="1.0" standalone="no"?>
<!DOCTYPE svg PUBLIC "-//W3C//DTD SVG 20010904//EN"
 "http://www.w3.org/TR/2001/REC-SVG-20010904/DTD/svg10.dtd">
<svg version="1.0" xmlns="http://www.w3.org/2000/svg"
 width="600.000000pt" height="600.000000pt" viewBox="0 0 600.000000 600.000000"
 preserveAspectRatio="xMidYMid meet">
<metadata>
Created by potrace 1.14, written by Peter Selinger 2001-2017
</metadata>
<g transform="translate(0.000000,600.000000) scale(0.100000,-0.100000)"
fill="#000000" stroke="none">
<path d="M2757 5764 c-2 -2 -32 -6 -68 -10 -35 -3 -77 -7 -94 -9 -33 -3 -185
-31 -225 -41 -14 -3 -33 -6 -42 -6 -10 1 -18 -3 -18 -8 0 -5 -8 -9 -17 -9 -18
1 -123 -26 -153 -38 -8 -3 -19 -7 -25 -9 -38 -9 -186 -68 -191 -75 -3 -5 -13
-9 -22 -9 -15 0 -187 -78 -222 -100 -8 -6 -31 -18 -50 -28 -19 -9 -37 -20 -40
-23 -3 -4 -24 -17 -47 -29 -24 -12 -43 -27 -43 -33 0 -6 -3 -8 -6 -5 -3 4 -44
-20 -90 -53 -92 -64 -92 -64 -145 -109 -20 -16 -40 -30 -43 -30 -4 0 -20 -16
-37 -35 -17 -19 -34 -35 -38 -35 -12 0 -209 -199 -203 -205 3 -3 1 -5 -5 -5
-10 0 -123 -131 -168 -194 -11 -16 -26 -34 -33 -41 -6 -8 -12 -17 -12 -22 0
-4 -10 -19 -23 -33 -13 -14 -26 -32 -30 -40 -3 -8 -27 -46 -51 -85 -40 -62
-184 -333 -187 -353 -2 -8 -6 -19 -39 -102 -25 -63 -51 -138 -55 -160 -2 -8
-4 -16 -5 -17 -2 -2 -3 -6 -5 -10 -1 -5 -4 -15 -8 -23 -5 -14 -33 -121 -42
-165 -3 -11 -7 -31 -10 -45 -3 -14 -7 -38 -10 -55 -2 -16 -7 -41 -10 -55 -3
-14 -7 -47 -10 -75 -3 -27 -8 -63 -12 -80 -3 -16 -6 -57 -7 -90 -1 -33 -5 -66
-9 -72 -5 -8 -3 -13 5 -13 8 0 9 -3 3 -8 -14 -10 -8 -292 9 -422 3 -25 8 -65
11 -90 6 -63 16 -122 22 -140 3 -8 7 -26 9 -40 5 -31 12 -63 15 -70 1 -3 3 -9
3 -15 2 -16 27 -108 34 -125 3 -8 7 -19 8 -25 1 -5 3 -13 4 -17 1 -5 3 -11 5
-15 1 -5 5 -16 8 -25 17 -45 20 -54 24 -73 2 -11 8 -24 13 -29 6 -6 10 -15 10
-22 0 -6 9 -32 20 -58 12 -25 20 -47 20 -48 -1 -4 68 -149 80 -168 5 -8 21
-37 35 -65 38 -75 186 -306 211 -330 5 -5 30 -37 54 -69 101 -134 395 -426
429 -426 7 0 9 -4 6 -10 -3 -5 -2 -10 3 -10 4 0 17 -8 28 -17 11 -10 27 -22
36 -28 16 -10 156 -109 173 -122 6 -5 30 -19 55 -32 25 -14 51 -31 58 -38 8
-7 18 -11 23 -8 5 4 9 1 9 -4 0 -6 6 -11 13 -11 7 0 19 -6 25 -12 7 -7 16 -13
20 -14 16 -1 82 -38 82 -46 0 -4 7 -5 15 -2 8 4 15 1 15 -7 0 -7 3 -9 7 -6 3
4 12 2 20 -4 7 -6 13 -8 13 -3 0 5 4 4 8 -2 6 -9 116 -58 132 -59 3 0 10 -3
16 -7 18 -12 98 -38 117 -38 9 0 17 -4 17 -8 0 -5 6 -9 13 -9 6 0 45 -10 86
-22 40 -13 85 -24 100 -26 14 -2 26 -5 26 -6 0 -1 9 -3 20 -5 24 -3 60 -11 83
-18 20 -6 95 -18 137 -22 17 -1 30 -3 30 -4 0 -1 20 -3 45 -5 25 -1 45 -3 45
-5 0 -4 135 -8 255 -9 168 0 270 3 270 9 0 3 15 6 33 6 50 1 155 15 217 30 14
3 36 8 50 10 32 5 64 12 68 14 1 2 10 3 20 5 9 1 24 4 32 7 15 6 125 37 145
41 6 2 16 6 23 10 6 5 17 5 22 2 6 -3 10 -2 10 3 0 5 12 12 28 15 15 3 41 11
57 18 17 7 32 13 35 14 105 35 413 191 432 220 4 5 8 6 8 2 0 -9 153 92 158
105 2 4 8 8 13 8 8 0 81 52 99 70 3 3 21 18 40 33 105 84 290 261 290 278 0 6
5 7 10 4 6 -3 10 -1 10 4 0 6 15 26 33 46 17 19 37 40 43 48 17 20 157 210
174 237 8 12 23 33 33 45 9 13 17 27 17 33 0 5 8 20 18 33 10 13 30 44 43 69
13 25 27 47 32 48 4 2 5 8 1 13 -3 5 0 9 5 9 6 0 10 3 9 8 -1 4 19 52 46 107
27 55 49 105 50 110 2 6 10 28 20 50 9 22 20 52 23 68 3 15 10 30 14 33 5 3 7
10 4 15 -4 5 -2 9 3 9 5 0 9 6 9 13 0 6 15 61 32 121 17 59 28 112 25 117 -3
5 0 9 7 9 7 0 9 10 7 25 -3 14 -1 25 3 25 5 0 9 16 9 35 0 19 3 35 8 35 4 0 8
15 9 33 0 17 4 50 6 72 3 22 9 67 13 100 4 33 7 164 7 290 0 257 -5 324 -38
510 -9 50 -19 97 -22 105 -4 8 -7 23 -8 33 -2 9 -3 18 -5 20 -3 4 -12 41 -17
75 -3 18 -9 35 -14 38 -5 3 -9 15 -9 28 0 12 -5 27 -12 34 -7 7 -9 12 -6 12
17 0 -167 440 -192 460 -4 3 -13 20 -21 38 -8 17 -17 32 -21 32 -5 0 -8 5 -8
11 0 10 -97 168 -110 179 -3 3 -16 22 -29 43 -12 20 -27 37 -32 37 -5 0 -9 6
-9 13 0 6 -15 28 -33 49 -17 20 -43 50 -57 68 -14 17 -57 65 -96 106 -39 41
-68 76 -66 79 3 3 1 5 -5 5 -5 0 -35 24 -65 53 -30 28 -72 67 -94 84 -21 18
-55 46 -74 63 -19 16 -53 42 -75 58 -22 15 -41 30 -43 35 -2 4 -10 7 -17 7 -7
0 -15 3 -17 8 -3 7 -132 93 -158 105 -8 4 -31 17 -50 29 -54 33 -174 92 -182
90 -5 -1 -8 2 -8 7 0 7 -13 14 -50 25 -4 1 -69 27 -165 67 -52 21 -209 70
-270 85 -58 13 -73 16 -95 18 -14 0 -27 4 -30 7 -3 4 -25 10 -50 13 -25 3 -56
8 -70 11 -49 10 -115 18 -155 19 -22 1 -45 4 -50 8 -11 7 -451 8 -458 2z"/>
</g>
</svg>
